<!-- Simple SVG icon that can be converted to PNG manually -->
<svg width="512" height="512" viewBox="0 0 512 512" xmlns="http://www.w3.org/2000/svg">
  <!-- Background Circle -->
  <circle cx="256" cy="256" r="240" fill="#28a745" stroke="#1e7e34" stroke-width="8"/>
  
  <!-- Wheat/Harvest Icon -->
  <g transform="translate(256,256)">
    <!-- Stem -->
    <rect x="-4" y="50" width="8" height="120" fill="#8B4513"/>
    
    <!-- Wheat grains -->
    <ellipse cx="-20" cy="0" rx="8" ry="15" fill="#FFD700"/>
    <ellipse cx="-15" cy="-20" rx="8" ry="15" fill="#FFD700"/>
    <ellipse cx="-10" cy="-35" rx="8" ry="15" fill="#FFD700"/>
    <ellipse cx="0" cy="-45" rx="8" ry="15" fill="#FFD700"/>
    <ellipse cx="10" cy="-35" rx="8" ry="15" fill="#FFD700"/>
    <ellipse cx="15" cy="-20" rx="8" ry="15" fill="#FFD700"/>
    <ellipse cx="20" cy="0" rx="8" ry="15" fill="#FFD700"/>
    
    <!-- Second wheat head -->
    <ellipse cx="-25" cy="20" rx="6" ry="12" fill="#FFA500"/>
    <ellipse cx="-20" cy="5" rx="6" ry="12" fill="#FFA500"/>
    <ellipse cx="-15" cy="-10" rx="6" ry="12" fill="#FFA500"/>
    <ellipse cx="-8" cy="-20" rx="6" ry="12" fill="#FFA500"/>
    <ellipse cx="8" cy="-20" rx="6" ry="12" fill="#FFA500"/>
    <ellipse cx="15" cy="-10" rx="6" ry="12" fill="#FFA500"/>
    <ellipse cx="20" cy="5" rx="6" ry="12" fill="#FFA500"/>
    <ellipse cx="25" cy="20" rx="6" ry="12" fill="#FFA500"/>
  </g>
  
  <!-- App Name -->
  <text x="256" y="420" font-family="Arial, sans-serif" font-size="32" font-weight="bold" text-anchor="middle" fill="white">HarvestInn</text>
</svg>
